{"title":"Spring 2014 BRRip XviD MP3 Idiocracy","uid":11987612,"size":778597575,"categoryP":"video","categoryS":"movies","magnet":"?xt=urn:btih:4592ef10483e59bdeb8c0a31c0ef15ae2bfa7c7e&amp;dn=Spring+2014+BRRip+XviD+MP3+Idiocracy&amp;tr=udp%3A%2F%2Ftracker.openbittorrent.com%3A80&amp;tr=udp%3A%2F%2Fopen.demonii.com%3A1337&amp;tr=udp%3A%2F%2Ftracker.coppersurfer.tk%3A6969&amp;tr=udp%3A%2F%2Fexodus.desync.com%3A6969","seeders":1,"leechers":0,"uploader":"Satafakap","files":3,"time":1433413544,"description":"Synopsis / Plot\n\nA young man in a personal tailspin flees the US to Italy, where he sparks up a romance with a woman harboring a dark, primordial secret.\n\nDirectors: Justin Benson, Aaron Moorhead\nWriter: Justin Benson\nStars: Lou Taylor Pucci, Nadia Hilker, Vanessa Bednar \n &lt;a href=&quot;\nhttp://www.imdb.com/title/tt3395184/&quot; rel=&quot;nofollow&quot; target=&quot;_NEW&quot;&gt;\nhttp://www.imdb.com/title/tt3395184/&lt;/a&gt;\n\nGeneral\n\nComplete name       : Spring.2014.BRRip.XviD.MP3-Idiocracy.avi\nFormat              : AVI\nFormat/Info         : Audio Video Interleave\nFile size           : 739 MiB\nDuration            : 1h 49mn\nOverall bit rate    : 942 Kbps\nWriting application : VirtualDubMod 1.5.10.3 | www.virtualdub-fr.org\nWriting library     : VirtualDubMod build 2550/release\nSource              : spring.2014.limited.bdrip.x264-amiable - Thanks!\nSample              : Yes\n\nVideo\n\nID                                       : 0\nFormat                                   : MPEG-4 Visual\nFormat profile                           : Advanced Simple@L5\nFormat settings, BVOP                    : 2\nFormat settings, QPel                    : No\nFormat settings, GMC                     : No warppoints\nFormat settings, Matrix                  : Default (H.263)\nMuxing mode                              : Packed bitstream\nCodec ID                                 : XVID\nCodec ID/Hint                            : XviD\nDuration                                 : 1h 49mn\nBit rate                                 : 805 Kbps\nWidth                                    : 640 pixels\nHeight                                   : 264 pixels\nDisplay aspect ratio                     : 2.40:1\nFrame rate                               : 23.976 fps\nColor space                              : YUV\nChroma subsampling                       : 4:2:0\nBit depth                                : 8 bits\nScan type                                : Progressive\nCompression mode                         : Lossy\nBits/(Pixel*Frame)                       : 0.199\nStream size                              : 632 MiB (85%)\nWriting library                          : XviD 64\n\nAudio\n\nID                                       : 1\nFormat                                   : MPEG Audio\nFormat version                           : Version 1\nFormat profile                           : Layer 3\nMode                                     : Joint stereo\nMode extension                           : MS Stereo\nCodec ID                                 : 55\nCodec ID/Hint                            : MP3\nDuration                                 : 1h 49mn\nBit rate mode                            : Constant\nBit rate                                 : 128 Kbps\nChannel(s)                               : 2 channels\nSampling rate                            : 48.0 KHz\nCompression mode                         : Lossy\nStream size                              : 100 MiB (14%)\nAlignment                                : Split accross interleaves\nInterleave, duration                     : 42 ms (1.00 video frame)\nInterleave, preload duration             : 500 ms\n\nScreenshots:\n &lt;a href=&quot;\nhttp://i.imgur.com/budQrHJ.jpg&quot; rel=&quot;nofollow&quot; target=&quot;_NEW&quot;&gt;\nhttp://i.imgur.com/budQrHJ.jpg&lt;/a&gt;\n &lt;a href=&quot;\nhttp://i.imgur.com/nVoqvrt.jpg&quot; rel=&quot;nofollow&quot; target=&quot;_NEW&quot;&gt;\nhttp://i.imgur.com/nVoqvrt.jpg&lt;/a&gt;\n &lt;a href=&quot;\nhttp://i.imgur.com/jKG5EXZ.jpg&quot; rel=&quot;nofollow&quot; target=&quot;_NEW&quot;&gt;\nhttp://i.imgur.com/jKG5EXZ.jpg&lt;/a&gt;\n &lt;a href=&quot;\nhttp://i.imgur.com/rUZ2dBk.jpg&quot; rel=&quot;nofollow&quot; target=&quot;_NEW&quot;&gt;\nhttp://i.imgur.com/rUZ2dBk.jpg&lt;/a&gt;\n &lt;a href=&quot;\nhttp://i.imgur.com/0KRUTa6.jpg&quot; rel=&quot;nofollow&quot; target=&quot;_NEW&quot;&gt;\nhttp://i.imgur.com/0KRUTa6.jpg&lt;/a&gt;","torrent":{"xt":"urn:btih:4592ef10483e59bdeb8c0a31c0ef15ae2bfa7c7e","amp;dn":"Spring+2014+BRRip+XviD+MP3+Idiocracy","amp;tr":["udp%3A%2F%2Ftracker.openbittorrent.com%3A80","udp%3A%2F%2Fopen.demonii.com%3A1337","udp%3A%2F%2Ftracker.coppersurfer.tk%3A6969","udp%3A%2F%2Fexodus.desync.com%3A6969"],"infoHash":"4592ef10483e59bdeb8c0a31c0ef15ae2bfa7c7e","infoHashBuffer":{"type":"Buffer","data":[69,146,239,16,72,62,89,189,235,140,10,49,192,239,21,174,43,250,124,126]},"announce":[],"urlList":[]}}